<?xml version="1.0" encoding="utf-8"?>
<!-- Generator: Adobe Illustrator 22.0.1, SVG Export Plug-In . SVG Version: 6.00 Build 0)  -->
<svg version="1.1" id="Layer_3" xmlns="http://www.w3.org/2000/svg" xmlns:xlink="http://www.w3.org/1999/xlink" x="0px" y="0px"
	 viewBox="0 0 231.8 280.4" style="enable-background:new 0 0 231.8 280.4;" xml:space="preserve">
<style type="text/css">
	.st0{fill:#FFFFFF;}
</style>
<rect width="231.8" height="280.4"/>
<g>
	<g>
		<path class="st0" d="M80.3,109.3l9-8.7c6.5,9.9,15.3,14.6,24,14.6c15.8,0,22.9-8,22.9-26.3V26.2H89.6V14.1h61v76
			c0,20.7-9.3,37.7-37.1,37.7C101.2,127.9,88.1,122.1,80.3,109.3z"/>
	</g>
	<g>
		<path class="st0" d="M75.7,208.7c0-36,20.6-57.8,49.5-57.8c14.8,0,24.5,7,30.8,13.6l-8.2,9c-5.3-5.6-11.9-10-22.6-10
			c-20.9,0-34.5,17.2-34.5,44.9c0,28,12.4,45.6,34.2,45.6c7.8,0,15.1-2.4,19.2-6.5v-29.1h-22.1v-11.7h35.4v46.9
			c-7,7.1-18.9,12.9-33.3,12.9C95.9,266.5,75.7,245.1,75.7,208.7z"/>
	</g>
</g>
</svg>
